<svg fill="none" height="24" viewBox="0 0 24 24" width="24" xmlns="http://www.w3.org/2000/svg"><path d="m5.16024 17.79c.26.58.56999 1.16.92999 1.72.76 1.17 1.78 2.48 3.11 2.49.55.01.91997-.16 1.31997-.34.46-.2.95-.43 1.81-.43.86-.01 1.35.22 1.8.43.39.18.75.34 1.29.34 1.33-.01 2.41-1.47 3.17-2.63.55-.84.75-1.26 1.17-2.2-3.08-1.17-3.58-5.56-.53-7.24001-.93-1.17-2.24-1.83999-3.47-1.83999-.89 0-1.5.23-2.05.44-.46.18-.89.34-1.4.34-.56 0-1.05-.17999-1.57-.35999-.57-.2-1.15997-.42001-1.89997-.42001-1.39 0-2.85999.85-3.79999 2.29-.45.7-.72001 1.62-.80001 2.65m11.16997-11.03c.16 1.1-.29 2.19001-.88 2.95001-.63.82-1.73 1.45999-2.79 1.41999-.19-1.06.3-2.15001.9-2.88001.67-.8 1.8-1.41999 2.77-1.48999z" stroke="#000" stroke-linecap="round" stroke-linejoin="round" stroke-miterlimit="10" stroke-width="1.5"/></svg>