<svg width="24" height="24" viewBox="0 0 24 24" fill="none" xmlns="http://www.w3.org/2000/svg">
<path d="M8 2V5M16 2V5M3.5 9.09H20.5M19.07 20.11L16.95 18M19.05 18.02L16.93 20.14M18 23C19.0609 23 20.0783 22.5786 20.8284 21.8284C21.5786 21.0783 22 20.0609 22 19C22 17.9391 21.5786 16.9217 20.8284 16.1716C20.0783 15.4214 19.0609 15 18 15C16.9391 15 15.9217 15.4214 15.1716 16.1716C14.4214 16.9217 14 17.9391 14 19C14 20.0609 14.4214 21.0783 15.1716 21.8284C15.9217 22.5786 16.9391 23 18 23Z" stroke="black" stroke-width="1.5" stroke-miterlimit="10" stroke-linecap="round" stroke-linejoin="round"/>
<path d="M3 13.01V8.5C3 5.5 4.5 3.5 8 3.5H16C19.5 3.5 21 5.5 21 8.5V16.36C20.27 15.53 19.2 15 18 15C15.79 15 14 16.79 14 19C14 19.75 14.21 20.46 14.58 21.06C14.79 21.42 15.06 21.74 15.37 22H8C4.5 22 3 20 3 17" stroke="black" stroke-width="1.5" stroke-miterlimit="10" stroke-linecap="round" stroke-linejoin="round"/>
<path d="M11.995 13.7H12.004M8.29504 13.7H8.30504M8.29504 16.7H8.30504" stroke="black" stroke-width="2" stroke-linecap="round" stroke-linejoin="round"/>
</svg>
