<svg width="24" height="24" viewBox="0 0 24 24" fill="none" xmlns="http://www.w3.org/2000/svg">
<path d="M22 13V15C22 20 20 22 15 22H9C4 22 2 20 2 15V13.48M11 2H9C4 2 2 4 2 9" stroke="white" stroke-width="1.5" stroke-linecap="round" stroke-linejoin="round"/>
<path d="M19.9299 9.01098L20.9799 7.96099C22.3399 6.60099 22.9799 5.02099 20.9799 3.02099C18.9799 1.02099 17.3999 1.66099 16.0399 3.02099L8.15988 10.901C7.85988 11.201 7.55988 11.791 7.49988 12.221L7.06988 15.231C6.90988 16.321 7.67988 17.081 8.76988 16.931L11.7799 16.501C12.1999 16.441 12.7899 16.141 13.0999 15.841L16.2799 12.661L17.0099 11.931" stroke="white" stroke-width="1.5" stroke-miterlimit="10" stroke-linecap="round" stroke-linejoin="round"/>
<path d="M14.9099 4.14801C15.2415 5.32548 15.8699 6.39808 16.7349 7.26306C17.5998 8.12804 18.6724 8.75642 19.8499 9.08801" stroke="white" stroke-width="1.5" stroke-miterlimit="10" stroke-linecap="round" stroke-linejoin="round"/>
</svg>
