<svg width="24" height="24" viewBox="0 0 24 24" fill="none" xmlns="http://www.w3.org/2000/svg">
<path d="M5.60003 17.759C4.60003 16.899 3.69003 15.839 2.89003 14.589C1.99003 13.179 1.99003 10.809 2.89003 9.399C4.07003 7.549 5.51003 6.099 7.12003 5.129M17.82 5.77C16.07 4.45 14.07 3.73 12 3.73M8.42203 19.53C9.56203 20.01 10.772 20.27 12.002 20.27C15.532 20.27 18.822 18.19 21.112 14.59C22.012 13.18 22.012 10.81 21.112 9.4C20.782 8.88 20.422 8.39 20.052 7.93M14.532 9.472L9.47203 14.532C9.13978 14.1998 8.87623 13.8053 8.69642 13.3712C8.51661 12.9371 8.42407 12.4719 8.42407 12.002C8.42407 11.5321 8.51661 11.0669 8.69642 10.6328C8.87623 10.1987 9.13978 9.80425 9.47203 9.472C9.80427 9.13976 10.1987 8.87621 10.6328 8.6964C11.0669 8.51659 11.5322 8.42404 12.002 8.42404C12.4719 8.42404 12.9372 8.51659 13.3713 8.6964C13.8054 8.87621 14.1998 9.13976 14.532 9.472V9.472Z" stroke="white" stroke-width="1.5" stroke-linecap="round" stroke-linejoin="round"/>
<path d="M15.511 12.7C15.3755 13.3976 15.0347 14.0387 14.5322 14.5412C14.0297 15.0437 13.3886 15.3845 12.691 15.52M9.47 14.531L2 22.001M22.001 2L14.531 9.47" stroke="white" stroke-width="1.5" stroke-linecap="round" stroke-linejoin="round"/>
</svg>
