<svg width="24" height="24" viewBox="0 0 24 24" fill="none" xmlns="http://www.w3.org/2000/svg">
<path d="M3.27001 7.50801C2.59001 8.86801 2.20001 10.388 2.20001 11.998C2.20001 13.608 2.59001 15.128 3.27001 16.488L3.28001 16.478V16.488C4.10769 18.1448 5.38083 19.5381 6.9565 20.5114C8.53217 21.4847 10.348 21.9995 12.2 21.998C14.9 21.998 17.17 21.108 18.82 19.578C20.71 17.838 21.8 15.268 21.8 12.218C21.8 11.398 21.73 10.798 21.59 10.178H12.2V13.888H17.71C17.6 14.808 17 16.198 15.67 17.128C14.83 17.718 13.69 18.128 12.2 18.128C9.56001 18.128 7.31001 16.388 6.51001 13.968C6.30001 13.348 6.18001 12.678 6.18001 11.988C6.18001 11.298 6.30001 10.628 6.50001 10.008C6.56001 9.82801 6.63001 9.63801 6.71001 9.46801C7.66001 7.33801 9.76001 5.85801 12.2 5.85801C14.08 5.85801 15.34 6.66801 16.07 7.34801L18.89 4.58801C17.16 2.97801 14.9 1.98801 12.2 1.98801C10.05 1.98801 8.06001 2.66801 6.43001 3.81801" stroke="white" stroke-width="1.5" stroke-miterlimit="10" stroke-linecap="round" stroke-linejoin="round"/>
</svg>
