<svg width="24" height="24" viewBox="0 0 24 24" fill="none" xmlns="http://www.w3.org/2000/svg">
<path d="M8 10.02V11.5C8 13.71 9.79 15.5 12 15.5C14.21 15.5 16 13.71 16 11.5V6C16 3.79 14.21 2 12 2C9.79 2 8 3.79 8 6" stroke="#FED36A" stroke-width="1.5" stroke-linecap="round" stroke-linejoin="round"/>
<path d="M4.35205 9.648V11.348C4.35205 15.568 7.78205 18.998 12.0021 18.998C16.2221 18.998 19.6521 15.568 19.6521 11.348V9.648M10.6101 6.431C11.5101 6.101 12.4901 6.101 13.3901 6.431M11.2001 8.55C11.7301 8.41 12.2801 8.41 12.8101 8.55M12.0001 19V22" stroke="#FED36A" stroke-width="1.5" stroke-linecap="round" stroke-linejoin="round"/>
</svg>
