<svg width="24" height="24" viewBox="0 0 24 24" fill="none" xmlns="http://www.w3.org/2000/svg">
<path d="M11.74 17.75H17.66C17.57 17.83 17.48 17.9 17.39 17.98L13.12 21.18C11.71 22.23 9.41 22.23 7.99 21.18L3.71 17.98C2.77 17.28 2 15.73 2 14.56V7.14999C2 5.92999 2.93 4.57999 4.07 4.14999L9.05 2.27999C9.87 1.96999 11.23 1.96999 12.05 2.27999L17.02 4.14999C17.97 4.50999 18.78 5.50999 19.03 6.52999H11.73C11.51 6.52999 11.31 6.53999 11.12 6.53999C9.27 6.64999 8.79 7.31999 8.79 9.42999V14.86C8.8 17.16 9.39 17.75 11.74 17.75V17.75Z" stroke="#8CAAB9" stroke-width="1.5" stroke-linecap="round" stroke-linejoin="round"/>
<path d="M8.80005 11.22H22" stroke="#8CAAB9" stroke-width="1.5" stroke-miterlimit="10" stroke-linecap="round" stroke-linejoin="round"/>
<path d="M22 9.42001V14.97C21.98 17.19 21.37 17.74 19.06 17.74H11.74C9.39005 17.74 8.80005 17.15 8.80005 14.84V9.41001C8.80005 7.31001 9.28005 6.64001 11.13 6.52001C11.32 6.52001 11.52 6.51001 11.74 6.51001H19.06C21.41 6.52001 22 7.10001 22 9.42001Z" stroke="#8CAAB9" stroke-width="1.5" stroke-linecap="round" stroke-linejoin="round"/>
<path d="M11.3201 15.26H12.6501M14.7501 15.26H18.0201" stroke="#8CAAB9" stroke-width="1.5" stroke-miterlimit="10" stroke-linecap="round" stroke-linejoin="round"/>
</svg>
