<svg width="24" height="24" viewBox="0 0 24 24" fill="none" xmlns="http://www.w3.org/2000/svg">
<path d="M22 6.5H16M6 6.5H2M22 17.5H18M8 17.5H2M10 10C10.4596 10 10.9148 9.90947 11.3394 9.73358C11.764 9.55769 12.1499 9.29988 12.4749 8.97487C12.7999 8.64987 13.0577 8.26403 13.2336 7.83939C13.4095 7.41475 13.5 6.95963 13.5 6.5C13.5 6.04037 13.4095 5.58525 13.2336 5.16061C13.0577 4.73597 12.7999 4.35013 12.4749 4.02513C12.1499 3.70012 11.764 3.44231 11.3394 3.26642C10.9148 3.09053 10.4596 3 10 3C9.07174 3 8.1815 3.36875 7.52513 4.02513C6.86875 4.6815 6.5 5.57174 6.5 6.5C6.5 7.42826 6.86875 8.3185 7.52513 8.97487C8.1815 9.63125 9.07174 10 10 10V10ZM14 21C14.9283 21 15.8185 20.6313 16.4749 19.9749C17.1313 19.3185 17.5 18.4283 17.5 17.5C17.5 16.5717 17.1313 15.6815 16.4749 15.0251C15.8185 14.3687 14.9283 14 14 14C13.0717 14 12.1815 14.3687 11.5251 15.0251C10.8687 15.6815 10.5 16.5717 10.5 17.5C10.5 18.4283 10.8687 19.3185 11.5251 19.9749C12.1815 20.6313 13.0717 21 14 21V21Z" stroke="#212832" stroke-width="1.5" stroke-miterlimit="10" stroke-linecap="round" stroke-linejoin="round"/>
</svg>
