<svg width="24" height="24" viewBox="0 0 24 24" fill="none" xmlns="http://www.w3.org/2000/svg">
<path d="M3.40991 22C3.40991 18.13 7.25991 15 11.9999 15C12.9599 15 13.8899 15.13 14.7599 15.37M11.9999 12C13.326 12 14.5978 11.4732 15.5354 10.5355C16.4731 9.59785 16.9999 8.32608 16.9999 7C16.9999 5.67392 16.4731 4.40215 15.5354 3.46447C14.5978 2.52678 13.326 2 11.9999 2C10.6738 2 9.40206 2.52678 8.46438 3.46447C7.5267 4.40215 6.99991 5.67392 6.99991 7C6.99991 8.32608 7.5267 9.59785 8.46438 10.5355C9.40206 11.4732 10.6738 12 11.9999 12V12Z" stroke="#8CAAB9" stroke-width="1.5" stroke-linecap="round" stroke-linejoin="round"/>
<path d="M19.49 17.98H16.51M18 16.52V19.51M22 18C22 18.32 21.96 18.63 21.88 18.93C21.79 19.33 21.63 19.72 21.42 20.06C21.0675 20.6525 20.5667 21.143 19.967 21.4831C19.3674 21.8233 18.6894 22.0014 18 22C17.0155 22.0029 16.0659 21.6352 15.34 20.97C15.04 20.71 14.78 20.4 14.58 20.06C14.1993 19.4404 13.9985 18.7272 14 18C13.9994 17.4745 14.1024 16.9541 14.3031 16.4685C14.5039 15.9829 14.7985 15.5417 15.1701 15.1701C15.5417 14.7985 15.9829 14.5039 16.4685 14.3031C16.9541 14.1024 17.4745 13.9993 18 14C19.18 14 20.25 14.51 20.97 15.33C21.61 16.04 22 16.98 22 18Z" stroke="#8CAAB9" stroke-width="1.5" stroke-miterlimit="10" stroke-linecap="round" stroke-linejoin="round"/>
</svg>
