<svg width="24" height="24" viewBox="0 0 24 24" fill="none" xmlns="http://www.w3.org/2000/svg">
<path d="M12.679 3.96C13.159 4.67 13.439 5.52 13.439 6.44C13.429 8.84 11.539 10.79 9.15899 10.87C9.05899 10.86 8.93899 10.86 8.82899 10.87C7.6812 10.831 6.59364 10.3468 5.79662 9.51996C4.99961 8.69308 4.55573 7.58845 4.55899 6.44C4.55899 3.99 6.53899 2 8.99899 2M16.411 4C18.351 4 19.911 5.57 19.911 7.5C19.911 9.39 18.411 10.93 16.541 11C16.4546 10.99 16.3674 10.99 16.281 11M18.34 20C19.06 19.85 19.74 19.56 20.3 19.13C21.86 17.96 21.86 16.03 20.3 14.86C19.75 14.44 19.08 14.16 18.37 14M4.15899 14.56C1.73899 16.18 1.73899 18.82 4.15899 20.43C6.90899 22.27 11.419 22.27 14.169 20.43C16.589 18.81 16.589 16.17 14.169 14.56C11.429 12.73 6.91899 12.73 4.15899 14.56V14.56Z" stroke="black" stroke-width="1.5" stroke-linecap="round" stroke-linejoin="round"/>
</svg>
