<svg width="24" height="24" viewBox="0 0 24 24" fill="none" xmlns="http://www.w3.org/2000/svg">
<path d="M18 18.86H17.24C16.44 18.86 15.68 19.17 15.12 19.73L13.41 21.42C12.63 22.19 11.36 22.19 10.58 21.42L8.87 19.73C8.31 19.17 7.54 18.86 6.75 18.86H6C4.34 18.86 3 17.53 3 15.89V4.98001C3 3.34001 4.34 2.01001 6 2.01001H18C19.66 2.01001 21 3.34001 21 4.98001V15.89C21 17.52 19.66 18.86 18 18.86Z" stroke="#8CAAB9" stroke-width="1.5" stroke-miterlimit="10" stroke-linecap="round" stroke-linejoin="round"/>
<path d="M16 15.66C16 13.86 14.21 12.4 12 12.4C9.79 12.4 8 13.86 8 15.66M12 10C12.306 10 12.609 9.93976 12.8917 9.82267C13.1743 9.70557 13.4312 9.53395 13.6476 9.31759C13.8639 9.10123 14.0355 8.84437 14.1526 8.56168C14.2697 8.27899 14.33 7.97601 14.33 7.67003C14.33 7.36405 14.2697 7.06106 14.1526 6.77837C14.0355 6.49569 13.8639 6.23883 13.6476 6.02247C13.4312 5.80611 13.1743 5.63448 12.8917 5.51739C12.609 5.40029 12.306 5.34003 12 5.34003C11.382 5.34003 10.7894 5.58551 10.3524 6.02247C9.91548 6.45943 9.67 7.05207 9.67 7.67003C9.67 8.28798 9.91548 8.88063 10.3524 9.31759C10.7894 9.75455 11.382 10 12 10Z" stroke="#8CAAB9" stroke-width="1.5" stroke-linecap="round" stroke-linejoin="round"/>
</svg>
